<mxfile host="65bd71144e" scale="2" border="0">
    <diagram id="BnsNrFVr5Wd3XkJ8FpZ6" name="Page-1">
        <mxGraphModel dx="649" dy="445" grid="1" gridSize="10" guides="1" tooltips="1" connect="1" arrows="1" fold="1" page="1" pageScale="1" pageWidth="1100" pageHeight="850" math="0" shadow="0">
            <root>
                <mxCell id="0"/>
                <mxCell id="1" parent="0"/>
                <mxCell id="79" value="" style="rounded=0;whiteSpace=wrap;html=1;" parent="1" vertex="1">
                    <mxGeometry x="249.7" y="30" width="100.3" height="170" as="geometry"/>
                </mxCell>
                <mxCell id="80" value="&lt;font color=&quot;#000000&quot;&gt;x&lt;sub&gt;i&lt;/sub&gt;&lt;/font&gt;" style="whiteSpace=wrap;html=1;aspect=fixed;fillColor=#dae8fc;strokeColor=#6c8ebf;" parent="1" vertex="1">
                    <mxGeometry x="178.7" y="69.37" width="20" height="20" as="geometry"/>
                </mxCell>
                <mxCell id="81" value="&lt;font color=&quot;#000000&quot;&gt;y&lt;sub&gt;i&lt;/sub&gt;&lt;/font&gt;" style="whiteSpace=wrap;html=1;aspect=fixed;fillColor=#f8cecc;strokeColor=#b85450;" parent="1" vertex="1">
                    <mxGeometry x="208.7" y="69.37" width="20" height="20" as="geometry"/>
                </mxCell>
                <mxCell id="82" value="&lt;font color=&quot;#000000&quot;&gt;x&lt;sub&gt;i&lt;/sub&gt;&lt;/font&gt;" style="whiteSpace=wrap;html=1;aspect=fixed;fillColor=#dae8fc;strokeColor=#6c8ebf;" parent="1" vertex="1">
                    <mxGeometry x="178.7" y="159.43" width="20" height="20" as="geometry"/>
                </mxCell>
                <mxCell id="83" value="&lt;font color=&quot;#000000&quot;&gt;y&lt;sub&gt;i&lt;/sub&gt;&lt;/font&gt;" style="whiteSpace=wrap;html=1;aspect=fixed;fillColor=#f8cecc;strokeColor=#b85450;" parent="1" vertex="1">
                    <mxGeometry x="208.7" y="159.43" width="20" height="20" as="geometry"/>
                </mxCell>
                <mxCell id="84" value="" style="line;strokeWidth=2;direction=south;html=1;dashed=1;dashPattern=1 4;" parent="1" vertex="1">
                    <mxGeometry x="213.7" y="107.75" width="10" height="36" as="geometry"/>
                </mxCell>
                <mxCell id="85" value="" style="endArrow=classic;html=1;" parent="1" edge="1">
                    <mxGeometry width="50" height="50" relative="1" as="geometry">
                        <mxPoint x="239.7" y="81" as="sourcePoint"/>
                        <mxPoint x="269.7" y="81.29999999999995" as="targetPoint"/>
                    </mxGeometry>
                </mxCell>
                <mxCell id="86" value="" style="endArrow=classic;html=1;" parent="1" edge="1">
                    <mxGeometry width="50" height="50" relative="1" as="geometry">
                        <mxPoint x="239.7" y="171" as="sourcePoint"/>
                        <mxPoint x="269.7" y="171.09000000000015" as="targetPoint"/>
                    </mxGeometry>
                </mxCell>
                <mxCell id="87" value="" style="endArrow=classic;html=1;" parent="1" edge="1">
                    <mxGeometry width="50" height="50" relative="1" as="geometry">
                        <mxPoint x="330" y="80.5000000000001" as="sourcePoint"/>
                        <mxPoint x="370" y="80" as="targetPoint"/>
                    </mxGeometry>
                </mxCell>
                <mxCell id="88" value="" style="endArrow=classic;html=1;" parent="1" edge="1">
                    <mxGeometry width="50" height="50" relative="1" as="geometry">
                        <mxPoint x="330" y="169.82000000000005" as="sourcePoint"/>
                        <mxPoint x="370" y="170" as="targetPoint"/>
                    </mxGeometry>
                </mxCell>
                <mxCell id="89" value="&lt;font color=&quot;#000000&quot;&gt;r&lt;sub&gt;i&lt;/sub&gt;&lt;/font&gt;" style="whiteSpace=wrap;html=1;aspect=fixed;fillColor=#ffe6cc;strokeColor=#d79b00;" parent="1" vertex="1">
                    <mxGeometry x="380" y="70.32999999999998" width="19.33" height="19.33" as="geometry"/>
                </mxCell>
                <mxCell id="90" value="&lt;font color=&quot;#000000&quot;&gt;r&lt;sub&gt;i&lt;/sub&gt;&lt;/font&gt;" style="whiteSpace=wrap;html=1;aspect=fixed;fillColor=#ffe6cc;strokeColor=#d79b00;" parent="1" vertex="1">
                    <mxGeometry x="380" y="160.39000000000001" width="19.27" height="19.27" as="geometry"/>
                </mxCell>
                <mxCell id="91" value="" style="line;strokeWidth=2;direction=south;html=1;dashed=1;dashPattern=1 4;" parent="1" vertex="1">
                    <mxGeometry x="293.7" y="107.75" width="10" height="36" as="geometry"/>
                </mxCell>
                <mxCell id="92" value="" style="line;strokeWidth=2;direction=south;html=1;dashed=1;dashPattern=1 4;" parent="1" vertex="1">
                    <mxGeometry x="384.64" y="107.41000000000003" width="10" height="36" as="geometry"/>
                </mxCell>
                <mxCell id="95" value="Enc" style="rounded=0;whiteSpace=wrap;html=1;" parent="1" vertex="1">
                    <mxGeometry x="278.7" y="61.24000000000001" width="40" height="38.76" as="geometry"/>
                </mxCell>
                <mxCell id="96" value="Enc" style="rounded=0;whiteSpace=wrap;html=1;" parent="1" vertex="1">
                    <mxGeometry x="278.7" y="150" width="40" height="40" as="geometry"/>
                </mxCell>
                <mxCell id="98" value="Set Encoder" style="text;html=1;strokeColor=none;fillColor=none;align=center;verticalAlign=middle;whiteSpace=wrap;rounded=0;" parent="1" vertex="1">
                    <mxGeometry x="262.35" y="29.99999999999997" width="75" height="22.1" as="geometry"/>
                </mxCell>
                <mxCell id="99" value="" style="line;strokeWidth=2;direction=south;html=1;dashed=1;dashPattern=1 4;" parent="1" vertex="1">
                    <mxGeometry x="183.7" y="107.75" width="10" height="36" as="geometry"/>
                </mxCell>
                <mxCell id="100" value="" style="shape=curlyBracket;whiteSpace=wrap;html=1;rounded=1;labelPosition=left;verticalLabelPosition=middle;align=right;verticalAlign=middle;fontColor=#000000;rotation=0;" parent="1" vertex="1">
                    <mxGeometry x="158.7" y="61.24000000000001" width="6.3" height="128.32" as="geometry"/>
                </mxCell>
                <mxCell id="101" value="&lt;font style=&quot;font-size: 12px;&quot;&gt;Set S&lt;/font&gt;" style="text;html=1;strokeColor=none;fillColor=none;align=center;verticalAlign=middle;whiteSpace=wrap;rounded=0;fontColor=#000000;" parent="1" vertex="1">
                    <mxGeometry x="105.00000000000001" y="110" width="60" height="30" as="geometry"/>
                </mxCell>
            </root>
        </mxGraphModel>
    </diagram>
</mxfile>